<svg width="3840" height="2160" viewBox="0 0 3840 2160" fill="none" xmlns="http://www.w3.org/2000/svg">
<g clip-path="url(#clip0_5_396)">
<rect width="3840" height="2160" fill="#A3DBF7"/>
<rect y="1806" width="3842" height="357" fill="#788A6D"/>
<rect x="-43" y="1555" width="3885" height="251" fill="#95AB88"/>
<rect x="-43" y="1411" width="3885" height="144" fill="#B7D6A4"/>
<rect x="-43" width="3885" height="230" fill="#82B1C8"/>
<rect x="-43" y="230" width="3885" height="149" fill="#93CCE9"/>
<rect width="98" height="46" transform="matrix(1 0 0 -1 98 422)" fill="#93CCE9"/>
<rect width="98" height="46" transform="matrix(1 0 0 -1 323 422)" fill="#93CCE9"/>
<rect width="98" height="46" transform="matrix(1 0 0 -1 323 422)" fill="#93CCE9"/>
<rect width="98" height="46" transform="matrix(1 0 0 -1 548 422)" fill="#93CCE9"/>
<rect width="98" height="46" transform="matrix(1 0 0 -1 548 422)" fill="#93CCE9"/>
<rect width="98" height="46" transform="matrix(1 0 0 -1 773 425)" fill="#93CCE9"/>
<rect width="98" height="46" transform="matrix(1 0 0 -1 998 425)" fill="#93CCE9"/>
<rect width="98" height="46" transform="matrix(1 0 0 -1 1223 425)" fill="#93CCE9"/>
<rect width="98" height="46" transform="matrix(1 0 0 -1 1223 425)" fill="#93CCE9"/>
<rect width="98" height="46" transform="matrix(1 0 0 -1 1448 425)" fill="#93CCE9"/>
<rect width="98" height="46" transform="matrix(1 0 0 -1 1673 425)" fill="#93CCE9"/>
<rect width="98" height="46" transform="matrix(1 0 0 -1 1898 425)" fill="#93CCE9"/>
<rect width="98" height="46" transform="matrix(1 0 0 -1 1898 425)" fill="#93CCE9"/>
<rect width="98" height="46" transform="matrix(1 0 0 -1 2123 425)" fill="#93CCE9"/>
<rect width="98" height="46" transform="matrix(1 0 0 -1 2348 425)" fill="#93CCE9"/>
<rect width="98" height="46" transform="matrix(1 0 0 -1 2573 425)" fill="#93CCE9"/>
<rect width="98" height="46" transform="matrix(1 0 0 -1 2573 425)" fill="#93CCE9"/>
<rect width="98" height="46" transform="matrix(1 0 0 -1 2798 425)" fill="#93CCE9"/>
<rect width="98" height="46" transform="matrix(1 0 0 -1 3023 425)" fill="#93CCE9"/>
<rect width="98" height="46" transform="matrix(1 0 0 -1 3248 425)" fill="#93CCE9"/>
<rect width="98" height="46" transform="matrix(1 0 0 -1 3248 425)" fill="#93CCE9"/>
<rect width="98" height="46" transform="matrix(1 0 0 -1 73 1811)" fill="#788A6D"/>
<rect width="98" height="46" transform="matrix(1 0 0 -1 298 1811)" fill="#788A6D"/>
<rect width="98" height="46" transform="matrix(1 0 0 -1 298 1811)" fill="#788A6D"/>
<rect width="98" height="46" transform="matrix(1 0 0 -1 523 1811)" fill="#788A6D"/>
<rect width="98" height="46" transform="matrix(1 0 0 -1 523 1811)" fill="#788A6D"/>
<rect width="98" height="46" transform="matrix(1 0 0 -1 748 1814)" fill="#788A6D"/>
<rect width="98" height="46" transform="matrix(1 0 0 -1 973 1814)" fill="#788A6D"/>
<rect width="98" height="46" transform="matrix(1 0 0 -1 1198 1814)" fill="#788A6D"/>
<rect width="98" height="46" transform="matrix(1 0 0 -1 1198 1814)" fill="#788A6D"/>
<rect width="98" height="46" transform="matrix(1 0 0 -1 1423 1814)" fill="#788A6D"/>
<rect width="98" height="46" transform="matrix(1 0 0 -1 1648 1814)" fill="#788A6D"/>
<rect width="98" height="46" transform="matrix(1 0 0 -1 1873 1814)" fill="#788A6D"/>
<rect width="98" height="46" transform="matrix(1 0 0 -1 1873 1814)" fill="#788A6D"/>
<rect width="98" height="46" transform="matrix(1 0 0 -1 2098 1814)" fill="#788A6D"/>
<rect width="98" height="46" transform="matrix(1 0 0 -1 2323 1814)" fill="#788A6D"/>
<rect width="98" height="46" transform="matrix(1 0 0 -1 2548 1814)" fill="#788A6D"/>
<rect width="98" height="46" transform="matrix(1 0 0 -1 2548 1814)" fill="#788A6D"/>
<rect width="98" height="46" transform="matrix(1 0 0 -1 2773 1814)" fill="#788A6D"/>
<rect width="98" height="46" transform="matrix(1 0 0 -1 2998 1814)" fill="#788A6D"/>
<rect width="98" height="46" transform="matrix(1 0 0 -1 3223 1814)" fill="#788A6D"/>
<rect width="98" height="46" transform="matrix(1 0 0 -1 3223 1814)" fill="#788A6D"/>
<rect width="98" height="46" transform="matrix(1 0 0 -1 201 1416)" fill="#B7D6A4"/>
<rect width="98" height="46" transform="matrix(1 0 0 -1 426 1416)" fill="#B7D6A4"/>
<rect width="98" height="46" transform="matrix(1 0 0 -1 426 1416)" fill="#B7D6A4"/>
<rect width="98" height="46" transform="matrix(1 0 0 -1 651 1416)" fill="#B7D6A4"/>
<rect width="98" height="46" transform="matrix(1 0 0 -1 651 1416)" fill="#B7D6A4"/>
<rect width="98" height="46" transform="matrix(1 0 0 -1 876 1419)" fill="#B7D6A4"/>
<rect width="98" height="46" transform="matrix(1 0 0 -1 1101 1419)" fill="#B7D6A4"/>
<rect width="98" height="46" transform="matrix(1 0 0 -1 1326 1419)" fill="#B7D6A4"/>
<rect width="98" height="46" transform="matrix(1 0 0 -1 1326 1419)" fill="#B7D6A4"/>
<rect width="98" height="46" transform="matrix(1 0 0 -1 1551 1419)" fill="#B7D6A4"/>
<rect width="98" height="46" transform="matrix(1 0 0 -1 1776 1419)" fill="#B7D6A4"/>
<rect width="98" height="46" transform="matrix(1 0 0 -1 2001 1419)" fill="#B7D6A4"/>
<rect width="98" height="46" transform="matrix(1 0 0 -1 2001 1419)" fill="#B7D6A4"/>
<rect width="98" height="46" transform="matrix(1 0 0 -1 2226 1419)" fill="#B7D6A4"/>
<rect width="98" height="46" transform="matrix(1 0 0 -1 2451 1419)" fill="#B7D6A4"/>
<rect width="98" height="46" transform="matrix(1 0 0 -1 2676 1419)" fill="#B7D6A4"/>
<rect width="98" height="46" transform="matrix(1 0 0 -1 2676 1419)" fill="#B7D6A4"/>
<rect width="98" height="46" transform="matrix(1 0 0 -1 2901 1419)" fill="#B7D6A4"/>
<rect width="98" height="46" transform="matrix(1 0 0 -1 3126 1419)" fill="#B7D6A4"/>
<rect width="98" height="46" transform="matrix(1 0 0 -1 3351 1419)" fill="#B7D6A4"/>
<rect width="98" height="46" transform="matrix(1 0 0 -1 3351 1419)" fill="#B7D6A4"/>
</g>
<defs>
<clipPath id="clip0_5_396">
<rect width="3840" height="2160" fill="white"/>
</clipPath>
</defs>
</svg>
