<svg width="218" height="753" viewBox="0 0 218 753" fill="none" xmlns="http://www.w3.org/2000/svg">
<path d="M6.5 6.4359V0H212.5V10.2974H217.5L218 48.2692H212.5V55.3487H6.5V48.2692H0V6.4359H6.5Z" fill="black"/>
<rect x="22" y="37.3282" width="177" height="715.672" fill="black"/>
<rect x="34" y="55.3487" width="153" height="697.651" fill="#B2B2B2"/>
<rect x="41.8061" y="71.4794" width="79.6225" height="52.4247" fill="#6A2F29"/>
<rect x="91.7653" y="208.59" width="87.4286" height="52.4247" fill="#3F1B18"/>
<rect x="41.8061" y="277.145" width="68.6939" height="52.4247" fill="#6A2F29"/>
<rect x="41.8061" y="277.145" width="68.6939" height="52.4247" fill="#6A2F29"/>
<rect x="91.7653" y="345.701" width="87.4286" height="52.4247" fill="#B76E68"/>
<rect x="43.3673" y="619.922" width="106.163" height="52.4247" fill="#3F1B18"/>
<rect x="155.776" y="619.922" width="23.4184" height="52.4247" fill="#6A2F29"/>
<rect x="48.051" y="688.477" width="43.7143" height="52.4247" fill="#B76E68"/>
<rect x="105.816" y="688.477" width="73.3775" height="52.4247" fill="#6A2F29"/>
<rect x="41.8061" y="345.701" width="37.4694" height="52.4247" fill="#6A2F29"/>
<rect x="41.8061" y="414.256" width="49.9592" height="52.4247" fill="#98463F"/>
<rect x="99.5714" y="414.256" width="79.6225" height="52.4247" fill="#6A2F29"/>
<rect x="41.8061" y="482.811" width="79.6225" height="52.4247" fill="#3F1B18"/>
<rect x="132.357" y="482.811" width="46.8367" height="52.4247" fill="#B76E68"/>
<rect x="44.9286" y="551.367" width="46.8367" height="52.4247" fill="#6A2F29"/>
<rect x="99.5714" y="551.367" width="79.6225" height="52.4247" fill="#98463F"/>
<rect x="41.8061" y="140.035" width="103.041" height="52.4247" fill="#98463F"/>
<rect x="155.776" y="140.035" width="23.4184" height="52.4247" fill="#6A2F29"/>
<rect x="41.8061" y="208.59" width="37.4694" height="52.4247" fill="#B76E68"/>
<rect x="132.357" y="71.4794" width="46.8367" height="52.4247" fill="#B76E68"/>
<rect x="118.306" y="277.145" width="60.8878" height="52.4247" fill="#98463F"/>
<rect x="34" y="55.3487" width="153" height="697.651" fill="#B2B2B2"/>
<rect x="41.8061" y="71.4794" width="79.6225" height="52.4247" fill="#6A2F29"/>
<rect x="91.7653" y="208.59" width="87.4286" height="52.4247" fill="#3F1B18"/>
<rect x="41.8061" y="277.145" width="68.6939" height="52.4247" fill="#6A2F29"/>
<rect x="41.8061" y="277.145" width="68.6939" height="52.4247" fill="#6A2F29"/>
<rect x="91.7653" y="345.701" width="87.4286" height="52.4247" fill="#B76E68"/>
<rect x="43.3673" y="619.922" width="106.163" height="52.4247" fill="#3F1B18"/>
<rect x="155.776" y="619.922" width="23.4184" height="52.4247" fill="#6A2F29"/>
<rect x="48.051" y="688.477" width="43.7143" height="52.4247" fill="#B76E68"/>
<rect x="105.816" y="688.477" width="73.3775" height="52.4247" fill="#6A2F29"/>
<rect x="41.8061" y="345.701" width="37.4694" height="52.4247" fill="#6A2F29"/>
<rect x="41.8061" y="414.256" width="49.9592" height="52.4247" fill="#98463F"/>
<rect x="99.5714" y="414.256" width="79.6225" height="52.4247" fill="#6A2F29"/>
<rect x="41.8061" y="482.811" width="79.6225" height="52.4247" fill="#3F1B18"/>
<rect x="132.357" y="482.811" width="46.8367" height="52.4247" fill="#B76E68"/>
<rect x="44.9286" y="551.367" width="46.8367" height="52.4247" fill="#6A2F29"/>
<rect x="99.5714" y="551.367" width="79.6225" height="52.4247" fill="#98463F"/>
<rect x="41.8061" y="140.035" width="103.041" height="52.4247" fill="#98463F"/>
<rect x="155.776" y="140.035" width="23.4184" height="52.4247" fill="#6A2F29"/>
<rect x="41.8061" y="208.59" width="37.4694" height="52.4247" fill="#B76E68"/>
<rect x="132.357" y="71.4794" width="46.8367" height="52.4247" fill="#B76E68"/>
<rect x="118.306" y="277.145" width="60.8878" height="52.4247" fill="#98463F"/>
<rect x="34" y="55.3487" width="153" height="697.651" fill="#B2B2B2"/>
<rect x="41.8061" y="71.4794" width="79.6225" height="52.4247" fill="#6A2F29"/>
<rect x="91.7653" y="208.59" width="87.4286" height="52.4247" fill="#3F1B18"/>
<rect x="41.8061" y="277.145" width="68.6939" height="52.4247" fill="#6A2F29"/>
<rect x="41.8061" y="277.145" width="68.6939" height="52.4247" fill="#6A2F29"/>
<rect x="91.7653" y="345.701" width="87.4286" height="52.4247" fill="#B76E68"/>
<rect x="43.3673" y="619.922" width="106.163" height="52.4247" fill="#3F1B18"/>
<rect x="155.776" y="619.922" width="23.4184" height="52.4247" fill="#6A2F29"/>
<rect x="45" y="688.641" width="47" height="52.7744" fill="#B76E68"/>
<rect x="105.816" y="688.477" width="73.3775" height="52.4247" fill="#6A2F29"/>
<rect x="41.8061" y="345.701" width="37.4694" height="52.4247" fill="#6A2F29"/>
<rect x="41.8061" y="414.256" width="49.9592" height="52.4247" fill="#98463F"/>
<rect x="99.5714" y="414.256" width="79.6225" height="52.4247" fill="#6A2F29"/>
<rect x="41.8061" y="482.811" width="79.6225" height="52.4247" fill="#3F1B18"/>
<rect x="132.357" y="482.811" width="46.8367" height="52.4247" fill="#B76E68"/>
<rect x="44.9286" y="551.367" width="46.8367" height="52.4247" fill="#6A2F29"/>
<rect x="99.5714" y="551.367" width="79.6225" height="52.4247" fill="#98463F"/>
<rect x="41.8061" y="140.035" width="103.041" height="52.4247" fill="#98463F"/>
<rect x="155.776" y="140.035" width="23.4184" height="52.4247" fill="#6A2F29"/>
<rect x="41.8061" y="208.59" width="37.4694" height="52.4247" fill="#B76E68"/>
<rect x="132.357" y="71.4794" width="46.8367" height="52.4247" fill="#B76E68"/>
<rect x="118.306" y="277.145" width="60.8878" height="52.4247" fill="#98463F"/>
<rect x="29" y="51.4872" width="11" height="11.5846" fill="black"/>
<rect x="115" y="66.9333" width="11" height="11.5846" fill="#B2B2B2"/>
<rect x="129" y="66.9333" width="11" height="11.5846" fill="#B2B2B2"/>
<rect x="129" y="113.272" width="11" height="11.5846" fill="#B2B2B2"/>
<rect x="173" y="66.9333" width="11" height="11.5846" fill="#B2B2B2"/>
<rect x="173" y="113.272" width="11" height="11.5846" fill="#B2B2B2"/>
<rect x="174" y="136.441" width="11" height="11.5846" fill="#B2B2B2"/>
<rect x="138" y="136.441" width="11" height="11.5846" fill="#B2B2B2"/>
<rect x="138" y="187.928" width="11" height="11.5846" fill="#B2B2B2"/>
<rect x="36" y="136.441" width="11" height="11.5846" fill="#B2B2B2"/>
<rect x="36" y="186.641" width="11" height="11.5846" fill="#B2B2B2"/>
<rect x="36" y="203.374" width="11" height="11.5846" fill="#B2B2B2"/>
<rect x="73" y="203.374" width="11" height="11.5846" fill="#B2B2B2"/>
<rect x="73" y="256.149" width="11" height="11.5846" fill="#B2B2B2"/>
<rect x="87" y="254.862" width="11" height="11.5846" fill="#B2B2B2"/>
<rect x="87" y="203.374" width="11" height="11.5846" fill="#B2B2B2"/>
<rect x="173" y="203.374" width="11" height="11.5846" fill="#B2B2B2"/>
<rect x="173" y="254.862" width="11" height="11.5846" fill="#B2B2B2"/>
<rect x="105" y="271.595" width="11" height="11.5846" fill="#B2B2B2"/>
<rect x="112" y="271.595" width="11" height="11.5846" fill="#B2B2B2"/>
<rect x="105" y="323.082" width="11" height="11.5846" fill="#B2B2B2"/>
<rect x="112" y="323.082" width="11" height="11.5846" fill="#B2B2B2"/>
<rect x="36" y="271.595" width="11" height="11.5846" fill="#B2B2B2"/>
<rect x="36" y="323.082" width="11" height="11.5846" fill="#B2B2B2"/>
<rect x="173" y="271.595" width="11" height="11.5846" fill="#B2B2B2"/>
<rect x="173" y="323.082" width="11" height="11.5846" fill="#B2B2B2"/>
<rect x="173" y="339.815" width="11" height="11.5846" fill="#B2B2B2"/>
<rect x="173" y="391.303" width="11" height="11.5846" fill="#B2B2B2"/>
<rect x="173" y="408.036" width="11" height="11.5846" fill="#B2B2B2"/>
<rect x="173" y="460.81" width="11" height="11.5846" fill="#B2B2B2"/>
<rect x="94" y="408.036" width="11" height="11.5846" fill="#B2B2B2"/>
<rect x="94" y="460.81" width="11" height="11.5846" fill="#B2B2B2"/>
<rect x="86" y="408.036" width="11" height="11.5846" fill="#B2B2B2"/>
<rect x="86" y="460.81" width="11" height="11.5846" fill="#B2B2B2"/>
<rect x="36" y="409.323" width="11" height="11.5846" fill="#B2B2B2"/>
<rect x="36" y="460.81" width="11" height="11.5846" fill="#B2B2B2"/>
<rect x="37" y="477.544" width="11" height="11.5846" fill="#B2B2B2"/>
<rect x="115" y="477.544" width="11" height="11.5846" fill="#B2B2B2"/>
<rect x="115" y="529.031" width="11" height="11.5846" fill="#B2B2B2"/>
<rect x="128" y="529.031" width="11" height="11.5846" fill="#B2B2B2"/>
<rect x="128" y="477.544" width="11" height="11.5846" fill="#B2B2B2"/>
<rect x="173" y="477.544" width="11" height="11.5846" fill="#B2B2B2"/>
<rect x="171" y="529.031" width="11" height="11.5846" fill="#B2B2B2"/>
<rect x="173" y="545.764" width="11" height="11.5846" fill="#B2B2B2"/>
<rect x="173" y="597.251" width="11" height="11.5846" fill="#B2B2B2"/>
<rect x="94" y="545.764" width="11" height="11.5846" fill="#B2B2B2"/>
<rect x="94" y="597.251" width="11" height="11.5846" fill="#B2B2B2"/>
<rect x="86" y="597.251" width="11" height="11.5846" fill="#B2B2B2"/>
<rect x="86" y="545.764" width="11" height="11.5846" fill="#B2B2B2"/>
<rect x="39" y="615.272" width="11" height="11.5846" fill="#B2B2B2"/>
<rect x="39" y="665.472" width="11" height="11.5846" fill="#B2B2B2"/>
<rect x="40" y="683.492" width="11" height="11.5846" fill="#B2B2B2"/>
<rect x="40" y="734.979" width="11" height="11.5846" fill="#B2B2B2"/>
<rect x="86" y="683.492" width="11" height="11.5846" fill="#B2B2B2"/>
<rect x="86" y="734.979" width="11" height="11.5846" fill="#B2B2B2"/>
<rect x="100" y="734.979" width="11" height="11.5846" fill="#B2B2B2"/>
<rect x="101" y="683.492" width="11" height="11.5846" fill="#B2B2B2"/>
<rect x="143" y="665.472" width="11" height="11.5846" fill="#B2B2B2"/>
<rect x="150" y="665.472" width="11" height="11.5846" fill="#B2B2B2"/>
<rect x="143" y="615.272" width="11" height="11.5846" fill="#B2B2B2"/>
<rect x="150" y="615.272" width="11" height="11.5846" fill="#B2B2B2"/>
<rect x="174" y="615.272" width="11" height="11.5846" fill="#B2B2B2"/>
<rect x="174" y="665.472" width="11" height="11.5846" fill="#B2B2B2"/>
<rect x="173" y="683.492" width="11" height="11.5846" fill="#B2B2B2"/>
<rect x="173" y="734.979" width="11" height="11.5846" fill="#B2B2B2"/>
<rect x="40" y="545.764" width="11" height="11.5846" fill="#B2B2B2"/>
<rect x="40" y="597.251" width="11" height="11.5846" fill="#B2B2B2"/>
<rect x="37" y="529.031" width="11" height="11.5846" fill="#B2B2B2"/>
<rect x="87" y="391.303" width="11" height="11.5846" fill="#B2B2B2"/>
<rect x="87" y="339.815" width="11" height="11.5846" fill="#B2B2B2"/>
<rect x="87" y="339.815" width="11" height="11.5846" fill="#B2B2B2"/>
<rect x="73" y="339.815" width="11" height="11.5846" fill="#B2B2B2"/>
<rect x="36" y="339.815" width="11" height="11.5846" fill="#B2B2B2"/>
<rect x="36" y="392.59" width="11" height="11.5846" fill="#B2B2B2"/>
<rect x="73" y="392.59" width="11" height="11.5846" fill="#B2B2B2"/>
<rect x="36" y="254.862" width="11" height="11.5846" fill="#B2B2B2"/>
<rect x="149" y="136.441" width="11" height="11.5846" fill="#B2B2B2"/>
<rect x="149" y="187.928" width="11" height="11.5846" fill="#B2B2B2"/>
<rect x="173" y="187.928" width="11" height="11.5846" fill="#B2B2B2"/>
<rect x="115" y="118.421" width="11" height="11.5846" fill="#B2B2B2"/>
<rect x="36" y="118.421" width="11" height="11.5846" fill="#B2B2B2"/>
<rect x="36" y="66.9333" width="11" height="11.5846" fill="#B2B2B2"/>
<rect x="181" y="51.4872" width="11" height="11.5846" fill="black"/>
<path d="M16.8739 15.0271V11.5846H203.03V17.0926H207.548L208 37.4031H203.03V41.1898H16.8739V37.4031H11V15.0271H16.8739Z" fill="#EAEAEA"/>
</svg>
