<svg width="220" height="765" viewBox="0 0 220 765" fill="none" xmlns="http://www.w3.org/2000/svg">
<path d="M212.209 757.575L212.202 764.104L6.20251 763.895L6.21313 753.449L1.21314 753.443L0.752321 714.923L6.25232 714.929L6.25962 707.747L212.26 707.957L212.252 715.138L218.752 715.145L218.709 757.582L212.209 757.575Z" fill="black"/>
<rect x="196.741" y="726.221" width="177" height="725.999" transform="rotate(-179.942 196.741 726.221)" fill="black"/>
<rect x="184.76" y="707.929" width="153" height="707.718" transform="rotate(-179.942 184.76 707.929)" fill="#B2B2B2"/>
<rect x="176.97" y="691.557" width="79.6225" height="53.1811" transform="rotate(-179.942 176.97 691.557)" fill="#6A2F29"/>
<rect x="127.152" y="552.417" width="87.4286" height="53.1811" transform="rotate(-179.942 127.152 552.417)" fill="#3F1B18"/>
<rect x="177.182" y="482.924" width="68.6939" height="53.1811" transform="rotate(-179.942 177.182 482.924)" fill="#6A2F29"/>
<rect x="177.182" y="482.924" width="68.6939" height="53.1811" transform="rotate(-179.942 177.182 482.924)" fill="#6A2F29"/>
<rect x="127.294" y="413.328" width="87.4286" height="53.1811" transform="rotate(-179.942 127.294 413.328)" fill="#B76E68"/>
<rect x="175.975" y="135.199" width="106.163" height="53.1811" transform="rotate(-179.942 175.975 135.199)" fill="#3F1B18"/>
<rect x="63.5667" y="135.085" width="23.4184" height="53.1811" transform="rotate(-179.942 63.5667 135.085)" fill="#6A2F29"/>
<rect x="171.362" y="65.6502" width="43.7143" height="53.1811" transform="rotate(-179.942 171.362 65.6502)" fill="#B76E68"/>
<rect x="113.597" y="65.5914" width="73.3775" height="53.1811" transform="rotate(-179.942 113.597 65.5914)" fill="#6A2F29"/>
<rect x="177.253" y="413.379" width="37.4694" height="53.1811" transform="rotate(-179.942 177.253 413.379)" fill="#6A2F29"/>
<rect x="177.324" y="343.835" width="49.9592" height="53.1811" transform="rotate(-179.942 177.324 343.835)" fill="#98463F"/>
<rect x="119.559" y="343.776" width="79.6225" height="53.1811" transform="rotate(-179.942 119.559 343.776)" fill="#6A2F29"/>
<rect x="177.395" y="274.29" width="79.6225" height="53.1811" transform="rotate(-179.942 177.395 274.29)" fill="#3F1B18"/>
<rect x="86.8436" y="274.198" width="46.8367" height="53.1811" transform="rotate(-179.942 86.8436 274.198)" fill="#B76E68"/>
<rect x="174.343" y="204.742" width="46.8367" height="53.1811" transform="rotate(-179.942 174.343 204.742)" fill="#6A2F29"/>
<rect x="119.7" y="204.687" width="79.6225" height="53.1811" transform="rotate(-179.942 119.7 204.687)" fill="#98463F"/>
<rect x="177.041" y="622.013" width="103.041" height="53.1811" transform="rotate(-179.942 177.041 622.013)" fill="#98463F"/>
<rect x="63.0715" y="621.897" width="23.4184" height="53.1811" transform="rotate(-179.942 63.0715 621.897)" fill="#6A2F29"/>
<rect x="177.112" y="552.468" width="37.4694" height="53.1811" transform="rotate(-179.942 177.112 552.468)" fill="#B76E68"/>
<rect x="86.4191" y="691.465" width="46.8367" height="53.1811" transform="rotate(-179.942 86.4191 691.465)" fill="#B76E68"/>
<rect x="100.682" y="482.846" width="60.8878" height="53.1811" transform="rotate(-179.942 100.682 482.846)" fill="#98463F"/>
<rect x="184.76" y="707.929" width="153" height="707.718" transform="rotate(-179.942 184.76 707.929)" fill="#B2B2B2"/>
<rect x="176.97" y="691.557" width="79.6225" height="53.1811" transform="rotate(-179.942 176.97 691.557)" fill="#6A2F29"/>
<rect x="127.152" y="552.417" width="87.4286" height="53.1811" transform="rotate(-179.942 127.152 552.417)" fill="#3F1B18"/>
<rect x="177.182" y="482.924" width="68.6939" height="53.1811" transform="rotate(-179.942 177.182 482.924)" fill="#6A2F29"/>
<rect x="177.182" y="482.924" width="68.6939" height="53.1811" transform="rotate(-179.942 177.182 482.924)" fill="#6A2F29"/>
<rect x="127.294" y="413.328" width="87.4286" height="53.1811" transform="rotate(-179.942 127.294 413.328)" fill="#B76E68"/>
<rect x="175.975" y="135.199" width="106.163" height="53.1811" transform="rotate(-179.942 175.975 135.199)" fill="#3F1B18"/>
<rect x="63.5667" y="135.085" width="23.4184" height="53.1811" transform="rotate(-179.942 63.5667 135.085)" fill="#6A2F29"/>
<rect x="171.362" y="65.6502" width="43.7143" height="53.1811" transform="rotate(-179.942 171.362 65.6502)" fill="#B76E68"/>
<rect x="113.597" y="65.5914" width="73.3775" height="53.1811" transform="rotate(-179.942 113.597 65.5914)" fill="#6A2F29"/>
<rect x="177.253" y="413.379" width="37.4694" height="53.1811" transform="rotate(-179.942 177.253 413.379)" fill="#6A2F29"/>
<rect x="177.324" y="343.835" width="49.9592" height="53.1811" transform="rotate(-179.942 177.324 343.835)" fill="#98463F"/>
<rect x="119.559" y="343.776" width="79.6225" height="53.1811" transform="rotate(-179.942 119.559 343.776)" fill="#6A2F29"/>
<rect x="177.395" y="274.29" width="79.6225" height="53.1811" transform="rotate(-179.942 177.395 274.29)" fill="#3F1B18"/>
<rect x="86.8436" y="274.198" width="46.8367" height="53.1811" transform="rotate(-179.942 86.8436 274.198)" fill="#B76E68"/>
<rect x="174.343" y="204.742" width="46.8367" height="53.1811" transform="rotate(-179.942 174.343 204.742)" fill="#6A2F29"/>
<rect x="119.7" y="204.687" width="79.6225" height="53.1811" transform="rotate(-179.942 119.7 204.687)" fill="#98463F"/>
<rect x="177.041" y="622.013" width="103.041" height="53.1811" transform="rotate(-179.942 177.041 622.013)" fill="#98463F"/>
<rect x="63.0715" y="621.897" width="23.4184" height="53.1811" transform="rotate(-179.942 63.0715 621.897)" fill="#6A2F29"/>
<rect x="177.112" y="552.468" width="37.4694" height="53.1811" transform="rotate(-179.942 177.112 552.468)" fill="#B76E68"/>
<rect x="86.4191" y="691.465" width="46.8367" height="53.1811" transform="rotate(-179.942 86.4191 691.465)" fill="#B76E68"/>
<rect x="100.682" y="482.846" width="60.8878" height="53.1811" transform="rotate(-179.942 100.682 482.846)" fill="#98463F"/>
<rect x="184.76" y="707.929" width="153" height="707.718" transform="rotate(-179.942 184.76 707.929)" fill="#B2B2B2"/>
<rect x="176.97" y="691.557" width="79.6225" height="53.1811" transform="rotate(-179.942 176.97 691.557)" fill="#6A2F29"/>
<rect x="127.152" y="552.417" width="87.4286" height="53.1811" transform="rotate(-179.942 127.152 552.417)" fill="#3F1B18"/>
<rect x="177.182" y="482.924" width="68.6939" height="53.1811" transform="rotate(-179.942 177.182 482.924)" fill="#6A2F29"/>
<rect x="177.182" y="482.924" width="68.6939" height="53.1811" transform="rotate(-179.942 177.182 482.924)" fill="#6A2F29"/>
<rect x="127.294" y="413.328" width="87.4286" height="53.1811" transform="rotate(-179.942 127.294 413.328)" fill="#B76E68"/>
<rect x="175.975" y="135.199" width="106.163" height="53.1811" transform="rotate(-179.942 175.975 135.199)" fill="#3F1B18"/>
<rect x="63.5667" y="135.085" width="23.4184" height="53.1811" transform="rotate(-179.942 63.5667 135.085)" fill="#6A2F29"/>
<rect x="174.413" y="65.4872" width="47" height="53.5359" transform="rotate(-179.942 174.413 65.4872)" fill="#B76E68"/>
<rect x="113.597" y="65.5914" width="73.3775" height="53.1811" transform="rotate(-179.942 113.597 65.5914)" fill="#6A2F29"/>
<rect x="177.253" y="413.379" width="37.4694" height="53.1811" transform="rotate(-179.942 177.253 413.379)" fill="#6A2F29"/>
<rect x="177.324" y="343.835" width="49.9592" height="53.1811" transform="rotate(-179.942 177.324 343.835)" fill="#98463F"/>
<rect x="119.559" y="343.776" width="79.6225" height="53.1811" transform="rotate(-179.942 119.559 343.776)" fill="#6A2F29"/>
<rect x="177.395" y="274.29" width="79.6225" height="53.1811" transform="rotate(-179.942 177.395 274.29)" fill="#3F1B18"/>
<rect x="86.8436" y="274.198" width="46.8367" height="53.1811" transform="rotate(-179.942 86.8436 274.198)" fill="#B76E68"/>
<rect x="174.343" y="204.742" width="46.8367" height="53.1811" transform="rotate(-179.942 174.343 204.742)" fill="#6A2F29"/>
<rect x="119.7" y="204.687" width="79.6225" height="53.1811" transform="rotate(-179.942 119.7 204.687)" fill="#98463F"/>
<rect x="177.041" y="622.013" width="103.041" height="53.1811" transform="rotate(-179.942 177.041 622.013)" fill="#98463F"/>
<rect x="63.0715" y="621.897" width="23.4184" height="53.1811" transform="rotate(-179.942 63.0715 621.897)" fill="#6A2F29"/>
<rect x="177.112" y="552.468" width="37.4694" height="53.1811" transform="rotate(-179.942 177.112 552.468)" fill="#B76E68"/>
<rect x="86.4191" y="691.465" width="46.8367" height="53.1811" transform="rotate(-179.942 86.4191 691.465)" fill="#B76E68"/>
<rect x="100.682" y="482.846" width="60.8878" height="53.1811" transform="rotate(-179.942 100.682 482.846)" fill="#98463F"/>
<rect x="189.756" y="711.851" width="11" height="11.7518" transform="rotate(-179.942 189.756 711.851)" fill="black"/>
<rect x="103.772" y="696.095" width="11" height="11.7518" transform="rotate(-179.942 103.772 696.095)" fill="#B2B2B2"/>
<rect x="89.7715" y="696.08" width="11" height="11.7518" transform="rotate(-179.942 89.7715 696.08)" fill="#B2B2B2"/>
<rect x="89.8194" y="649.073" width="11" height="11.7518" transform="rotate(-179.942 89.8194 649.073)" fill="#B2B2B2"/>
<rect x="45.7715" y="696.036" width="11" height="11.7518" transform="rotate(-179.942 45.7715 696.036)" fill="#B2B2B2"/>
<rect x="45.8194" y="649.029" width="11" height="11.7518" transform="rotate(-179.942 45.8194 649.029)" fill="#B2B2B2"/>
<rect x="44.8433" y="625.524" width="11" height="11.7518" transform="rotate(-179.942 44.8433 625.524)" fill="#B2B2B2"/>
<rect x="80.8433" y="625.561" width="11" height="11.7518" transform="rotate(-179.942 80.8433 625.561)" fill="#B2B2B2"/>
<rect x="80.8964" y="573.33" width="11" height="11.7518" transform="rotate(-179.942 80.8964 573.33)" fill="#B2B2B2"/>
<rect x="182.843" y="625.664" width="11" height="11.7518" transform="rotate(-179.942 182.843 625.664)" fill="#B2B2B2"/>
<rect x="182.895" y="574.74" width="11" height="11.7518" transform="rotate(-179.942 182.895 574.74)" fill="#B2B2B2"/>
<rect x="182.912" y="557.765" width="11" height="11.7518" transform="rotate(-179.942 182.912 557.765)" fill="#B2B2B2"/>
<rect x="145.912" y="557.728" width="11" height="11.7518" transform="rotate(-179.942 145.912 557.728)" fill="#B2B2B2"/>
<rect x="145.967" y="504.192" width="11" height="11.7518" transform="rotate(-179.942 145.967 504.192)" fill="#B2B2B2"/>
<rect x="131.965" y="505.483" width="11" height="11.7518" transform="rotate(-179.942 131.965 505.483)" fill="#B2B2B2"/>
<rect x="131.912" y="557.713" width="11" height="11.7518" transform="rotate(-179.942 131.912 557.713)" fill="#B2B2B2"/>
<rect x="45.9124" y="557.626" width="11" height="11.7518" transform="rotate(-179.942 45.9124 557.626)" fill="#B2B2B2"/>
<rect x="45.9655" y="505.396" width="11" height="11.7518" transform="rotate(-179.942 45.9655 505.396)" fill="#B2B2B2"/>
<rect x="113.983" y="488.49" width="11" height="11.7518" transform="rotate(-179.942 113.983 488.49)" fill="#B2B2B2"/>
<rect x="106.983" y="488.483" width="11" height="11.7518" transform="rotate(-179.942 106.983 488.483)" fill="#B2B2B2"/>
<rect x="114.036" y="436.26" width="11" height="11.7518" transform="rotate(-179.942 114.036 436.26)" fill="#B2B2B2"/>
<rect x="107.036" y="436.253" width="11" height="11.7518" transform="rotate(-179.942 107.036 436.253)" fill="#B2B2B2"/>
<rect x="182.983" y="488.56" width="11" height="11.7518" transform="rotate(-179.942 182.983 488.56)" fill="#B2B2B2"/>
<rect x="183.036" y="436.33" width="11" height="11.7518" transform="rotate(-179.942 183.036 436.33)" fill="#B2B2B2"/>
<rect x="45.9828" y="488.421" width="11" height="11.7518" transform="rotate(-179.942 45.9828 488.421)" fill="#B2B2B2"/>
<rect x="46.0359" y="436.191" width="11" height="11.7518" transform="rotate(-179.942 46.0359 436.191)" fill="#B2B2B2"/>
<rect x="46.0532" y="419.216" width="11" height="11.7518" transform="rotate(-179.942 46.0532 419.216)" fill="#B2B2B2"/>
<rect x="46.1063" y="366.986" width="11" height="11.7518" transform="rotate(-179.942 46.1063 366.986)" fill="#B2B2B2"/>
<rect x="46.1236" y="350.011" width="11" height="11.7518" transform="rotate(-179.942 46.1236 350.011)" fill="#B2B2B2"/>
<rect x="46.178" y="296.475" width="11" height="11.7518" transform="rotate(-179.942 46.178 296.475)" fill="#B2B2B2"/>
<rect x="125.124" y="350.091" width="11" height="11.7518" transform="rotate(-179.942 125.124 350.091)" fill="#B2B2B2"/>
<rect x="125.178" y="296.556" width="11" height="11.7518" transform="rotate(-179.942 125.178 296.556)" fill="#B2B2B2"/>
<rect x="133.124" y="350.1" width="11" height="11.7518" transform="rotate(-179.942 133.124 350.1)" fill="#B2B2B2"/>
<rect x="133.178" y="296.564" width="11" height="11.7518" transform="rotate(-179.942 133.178 296.564)" fill="#B2B2B2"/>
<rect x="183.125" y="348.845" width="11" height="11.7518" transform="rotate(-179.942 183.125 348.845)" fill="#B2B2B2"/>
<rect x="183.178" y="296.615" width="11" height="11.7518" transform="rotate(-179.942 183.178 296.615)" fill="#B2B2B2"/>
<rect x="182.195" y="279.639" width="11" height="11.7518" transform="rotate(-179.942 182.195 279.639)" fill="#B2B2B2"/>
<rect x="104.195" y="279.559" width="11" height="11.7518" transform="rotate(-179.942 104.195 279.559)" fill="#B2B2B2"/>
<rect x="104.248" y="227.329" width="11" height="11.7518" transform="rotate(-179.942 104.248 227.329)" fill="#B2B2B2"/>
<rect x="91.2484" y="227.316" width="11" height="11.7518" transform="rotate(-179.942 91.2484 227.316)" fill="#B2B2B2"/>
<rect x="91.1953" y="279.546" width="11" height="11.7518" transform="rotate(-179.942 91.1953 279.546)" fill="#B2B2B2"/>
<rect x="46.1953" y="279.5" width="11" height="11.7518" transform="rotate(-179.942 46.1953 279.5)" fill="#B2B2B2"/>
<rect x="48.2484" y="227.272" width="11" height="11.7518" transform="rotate(-179.942 48.2484 227.272)" fill="#B2B2B2"/>
<rect x="46.2657" y="210.296" width="11" height="11.7518" transform="rotate(-179.942 46.2657 210.296)" fill="#B2B2B2"/>
<rect x="46.3188" y="158.065" width="11" height="11.7518" transform="rotate(-179.942 46.3188 158.065)" fill="#B2B2B2"/>
<rect x="125.266" y="210.376" width="11" height="11.7518" transform="rotate(-179.942 125.266 210.376)" fill="#B2B2B2"/>
<rect x="125.319" y="158.146" width="11" height="11.7518" transform="rotate(-179.942 125.319 158.146)" fill="#B2B2B2"/>
<rect x="133.319" y="158.154" width="11" height="11.7518" transform="rotate(-179.942 133.319 158.154)" fill="#B2B2B2"/>
<rect x="133.266" y="210.384" width="11" height="11.7518" transform="rotate(-179.942 133.266 210.384)" fill="#B2B2B2"/>
<rect x="180.337" y="139.921" width="11" height="11.7518" transform="rotate(-179.942 180.337 139.921)" fill="#B2B2B2"/>
<rect x="180.389" y="88.9969" width="11" height="11.7518" transform="rotate(-179.942 180.389 88.9969)" fill="#B2B2B2"/>
<rect x="179.408" y="70.7154" width="11" height="11.7518" transform="rotate(-179.942 179.408 70.7154)" fill="#B2B2B2"/>
<rect x="179.461" y="18.4852" width="11" height="11.7518" transform="rotate(-179.942 179.461 18.4852)" fill="#B2B2B2"/>
<rect x="133.408" y="70.6685" width="11" height="11.7518" transform="rotate(-179.942 133.408 70.6685)" fill="#B2B2B2"/>
<rect x="133.461" y="18.4384" width="11" height="11.7518" transform="rotate(-179.942 133.461 18.4384)" fill="#B2B2B2"/>
<rect x="119.461" y="18.4242" width="11" height="11.7518" transform="rotate(-179.942 119.461 18.4242)" fill="#B2B2B2"/>
<rect x="118.408" y="70.6533" width="11" height="11.7518" transform="rotate(-179.942 118.408 70.6533)" fill="#B2B2B2"/>
<rect x="76.3892" y="88.8911" width="11" height="11.7518" transform="rotate(-179.942 76.3892 88.8911)" fill="#B2B2B2"/>
<rect x="69.3892" y="88.884" width="11" height="11.7518" transform="rotate(-179.942 69.3892 88.884)" fill="#B2B2B2"/>
<rect x="76.3374" y="139.815" width="11" height="11.7518" transform="rotate(-179.942 76.3374 139.815)" fill="#B2B2B2"/>
<rect x="69.3374" y="139.808" width="11" height="11.7518" transform="rotate(-179.942 69.3374 139.808)" fill="#B2B2B2"/>
<rect x="45.3374" y="139.784" width="11" height="11.7518" transform="rotate(-179.942 45.3374 139.784)" fill="#B2B2B2"/>
<rect x="45.3892" y="88.8596" width="11" height="11.7518" transform="rotate(-179.942 45.3892 88.8596)" fill="#B2B2B2"/>
<rect x="46.4078" y="70.58" width="11" height="11.7518" transform="rotate(-179.942 46.4078 70.58)" fill="#B2B2B2"/>
<rect x="46.461" y="18.3499" width="11" height="11.7518" transform="rotate(-179.942 46.461 18.3499)" fill="#B2B2B2"/>
<rect x="179.266" y="210.431" width="11" height="11.7518" transform="rotate(-179.942 179.266 210.431)" fill="#B2B2B2"/>
<rect x="179.319" y="158.201" width="11" height="11.7518" transform="rotate(-179.942 179.319 158.201)" fill="#B2B2B2"/>
<rect x="182.248" y="227.409" width="11" height="11.7518" transform="rotate(-179.942 182.248 227.409)" fill="#B2B2B2"/>
<rect x="132.106" y="367.073" width="11" height="11.7518" transform="rotate(-179.942 132.106 367.073)" fill="#B2B2B2"/>
<rect x="132.053" y="419.303" width="11" height="11.7518" transform="rotate(-179.942 132.053 419.303)" fill="#B2B2B2"/>
<rect x="132.053" y="419.303" width="11" height="11.7518" transform="rotate(-179.942 132.053 419.303)" fill="#B2B2B2"/>
<rect x="146.053" y="419.318" width="11" height="11.7518" transform="rotate(-179.942 146.053 419.318)" fill="#B2B2B2"/>
<rect x="183.053" y="419.355" width="11" height="11.7518" transform="rotate(-179.942 183.053 419.355)" fill="#B2B2B2"/>
<rect x="183.108" y="365.82" width="11" height="11.7518" transform="rotate(-179.942 183.108 365.82)" fill="#B2B2B2"/>
<rect x="146.108" y="365.782" width="11" height="11.7518" transform="rotate(-179.942 146.108 365.782)" fill="#B2B2B2"/>
<rect x="182.965" y="505.535" width="11" height="11.7518" transform="rotate(-179.942 182.965 505.535)" fill="#B2B2B2"/>
<rect x="69.8433" y="625.549" width="11" height="11.7518" transform="rotate(-179.942 69.8433 625.549)" fill="#B2B2B2"/>
<rect x="69.8964" y="573.319" width="11" height="11.7518" transform="rotate(-179.942 69.8964 573.319)" fill="#B2B2B2"/>
<rect x="45.8964" y="573.295" width="11" height="11.7518" transform="rotate(-179.942 45.8964 573.295)" fill="#B2B2B2"/>
<rect x="103.825" y="643.864" width="11" height="11.7518" transform="rotate(-179.942 103.825 643.864)" fill="#B2B2B2"/>
<rect x="182.825" y="643.945" width="11" height="11.7518" transform="rotate(-179.942 182.825 643.945)" fill="#B2B2B2"/>
<rect x="182.771" y="696.175" width="11" height="11.7518" transform="rotate(-179.942 182.771 696.175)" fill="#B2B2B2"/>
<rect x="37.7556" y="711.696" width="11" height="11.7518" transform="rotate(-179.942 37.7556 711.696)" fill="black"/>
<path d="M201.844 748.85L201.841 752.342L15.6846 752.152L15.6903 746.565L11.172 746.56L10.7411 725.956L15.7113 725.961L15.7152 722.12L201.871 722.309L201.867 726.151L207.741 726.157L207.718 748.856L201.844 748.85Z" fill="#EAEAEA"/>
</svg>
