<svg width="98" height="346" viewBox="0 0 98 346" fill="none" xmlns="http://www.w3.org/2000/svg">
<rect width="98" height="346" fill="#B2B2B2"/>
<rect x="5" y="8" width="51" height="26" fill="#6A2F29"/>
<rect x="37" y="76" width="56" height="26" fill="#3F1B18"/>
<rect x="5" y="110" width="44" height="26" fill="#6A2F29"/>
<rect x="5" y="110" width="44" height="26" fill="#6A2F29"/>
<rect x="37" y="144" width="56" height="26" fill="#B76E68"/>
<rect x="6" y="280" width="68" height="26" fill="#3F1B18"/>
<rect x="78" y="280" width="15" height="26" fill="#6A2F29"/>
<rect x="9" y="314" width="28" height="26" fill="#B76E68"/>
<rect x="46" y="314" width="47" height="26" fill="#6A2F29"/>
<rect x="5" y="144" width="24" height="26" fill="#6A2F29"/>
<rect x="5" y="178" width="32" height="26" fill="#98463F"/>
<rect x="42" y="178" width="51" height="26" fill="#6A2F29"/>
<rect x="5" y="212" width="51" height="26" fill="#3F1B18"/>
<rect x="63" y="212" width="30" height="26" fill="#B76E68"/>
<rect x="7" y="246" width="30" height="26" fill="#6A2F29"/>
<rect x="42" y="246" width="51" height="26" fill="#98463F"/>
<rect x="5" y="42" width="66" height="26" fill="#98463F"/>
<rect x="78" y="42" width="15" height="26" fill="#6A2F29"/>
<rect x="5" y="76" width="24" height="26" fill="#B76E68"/>
<rect x="63" y="8" width="30" height="26" fill="#B76E68"/>
<rect x="54" y="110" width="39" height="26" fill="#98463F"/>
</svg>
